<?xml version="1.0" encoding="UTF-8" standalone="no"?>
<!-- Creator: CorelDRAW 2020 (64 Bit) -->

<svg
   xml:space="preserve"
   width="168.606mm"
   height="80.5195mm"
   version="1.1"
   style="shape-rendering:geometricPrecision; text-rendering:geometricPrecision; image-rendering:optimizeQuality; fill-rule:evenodd; clip-rule:evenodd"
   viewBox="0 0 23355.67 11153.75"
   id="svg1"
   xmlns="http://www.w3.org/2000/svg"
   xmlns:svg="http://www.w3.org/2000/svg">
 <defs
   id="defs1">
  <style
   type="text/css"
   id="style1">
   <![CDATA[
    .fil0 {fill:#373435}
   ]]>
  </style>
 </defs>
 <g
   id="Camada_x0020_1">
  <metadata
   id="CorelCorpID_0Corel-Layer" />
  <path
   class="fil0"
   d="M19120.61 8180.66c94.22,162.6 139.15,794.08 64.58,978.56 286.26,127.86 1302.21,438.95 1367.34,474.76 -494.14,-0.76 -2233.77,-440.75 -2729.69,-632.41 125.64,-112.36 474.59,-267.9 657,-387.23 131.78,-86.19 539.97,-410.72 640.78,-433.69zm2250.07 981.75c109.81,117.43 134.2,-3.71 246.39,187.28 -35.75,244.8 -111.82,178.49 -217.54,347.59 445.17,-102.66 507.23,-552.66 -28.85,-534.88zm-129.31 -761.98c99.15,114.38 289.21,80.38 250.13,309.07 -23.02,134.67 -171.53,210.28 -252.43,292.71 449.49,-13.38 614.94,-607.23 2.3,-601.78zm-62.43 -698.28c107.73,84.73 295.94,124.85 223.88,317.66 -59.81,160.03 -196.18,170.04 -288.6,284.37 280.02,-7.7 445.24,-154.04 443.35,-442.34 -159.3,-136.53 -141.03,-166.93 -378.64,-159.69zm-13045.01 -4586.17l105.12 -52.71c105.12,40.52 7.95,63.55 244.28,52.9 131.4,-5.93 205.96,3.21 247.23,-96.2 -117.23,-130.02 -60.49,-35.48 -212.65,-44.45 -209.2,-12.33 -194.06,-268.93 -497.48,45.44 -266.16,-150.88 -504.14,-729.75 -740.1,-319.64 46.4,176.23 252.82,258.91 348.95,412.46 -155.38,-44.52 -454.89,-266.93 -665.39,-349.63 -242.68,-95.33 -492.75,-173.97 -757.27,-224.17 -370.15,-70.27 -1469.43,-113.45 -1776.09,68.46l222.43 472.92c-155.51,-14.5 -347.15,-77.05 -531.18,-102.73 -1316.05,-183.71 -1735.78,296.24 -2533.64,520.47 -173.32,48.72 -911.91,198.46 -992.18,246.97 340.4,154.15 1086.03,40.38 1440.76,-82.71 519.51,-180.27 683.55,-300.57 1267.56,-378.91 413.16,-55.42 1060.62,8.82 1447.39,172.39 367.21,155.28 491.64,474.69 931.41,682.26 689.8,325.58 1917.93,354.37 2420.62,872.46 164.7,169.75 186.05,407.95 0.4,570.89 -385.04,337.97 -1735.8,159.34 -2215.94,157.87 383.46,266.84 1593.42,159.76 1853.15,330.63 124.39,81.84 250.81,347 234.42,489.12 -18.06,156.61 -224.09,284.01 -389.44,341.54 -681.35,237.09 -1279.45,33.91 -1946.54,82.34 332.51,161.67 1699.97,133.96 1733.97,656.17 -139.05,212.85 -699.65,427.23 -931.76,492.11 -415.1,116.03 -840.96,107.27 -1288.58,109.02 283.82,166.37 1040.72,56.85 1395.67,345.57 -812.46,652.23 -2896.95,432.79 -3856.84,31.98 -1282.65,-535.56 -1096.25,-1810.75 -2692.24,-1925.9 97.3,77.25 269.81,112.4 396.24,169.79 756.66,343.47 917.86,1238.68 1721.86,1792.58 381.34,262.74 -181.01,391.31 666.61,2150.12l12220.23 -0.03c568.9,1.03 541.4,-74.1 763.33,123.4 121.37,108.01 452.03,146.5 632.22,225 -59.37,-173.36 -228.05,-182.64 -289.26,-348.63 704.95,1.97 5834.2,59.07 6068.05,-23.73l-51.02 -323.63c131.32,-109.67 235.74,-104.74 352.04,-280.36 197.03,-297.53 -16.75,-437.72 129.99,-658.88 228.7,-344.69 151.56,-291.55 120.39,-675.37 218.66,-199.5 447.4,-426.19 473.98,-761.71 18.6,-234.91 -99.96,-362.14 -84.64,-495.51 19.86,-172.83 113.21,-297.86 24.01,-515.68 935.62,-828.97 -1493.22,-3267.58 -2185.38,-3452.84 -530.98,-142.12 -857.86,6.72 -1362.63,33.61 -572.15,30.49 -676.5,-82.23 -1427.96,28.98 -605.81,89.67 -1258.57,419.5 -1832.76,446.08 -103.16,4.78 -562.71,-2.26 -625.19,21.33 787.17,296.73 1561.92,6.14 2346.62,-135.39 433.56,-78.2 800.24,-81.85 1220.88,-74.54 1452.48,25.24 1342.56,-617.23 2874.66,1019 430.13,459.37 931.37,1141.45 923.54,1795.51 -86.13,-28.49 -84.84,-52.54 -130.71,-150.96l-303.79 -518.81c-287.3,-426.52 -1198.51,-1553.2 -1629.84,-1671.59 142.59,192.96 616.85,588.78 671.85,819.55 -209.64,-99.31 -444.37,-134.66 -665.39,-216.27 -721.18,-266.31 -1298.34,-551.35 -2126.08,-413.07 118.12,68.01 872.37,189.94 1104.63,263.89 365.74,116.44 600.29,287.02 926.48,403.25 313.81,111.82 681.21,170.3 942.91,386.8 262.15,216.87 407.91,416.83 609.71,718.97 -106.21,192.14 -550,712.09 -94.6,822.61 -85.11,-125.22 -167.57,-176.81 -37.89,-354.04 60.28,-82.38 164.3,-181.95 260.01,-217.92 88.24,71.26 237.69,416.33 267.71,527.48 64.01,237.05 -61.06,389.72 -211.66,544.12 -441.1,452.22 -737.49,363.5 -1041.42,544.85 678.41,2.24 1159.38,-389.98 1283.83,-360.35 217.3,734.15 -1270.79,1179.19 -1320.46,1214.01 319.99,3.89 604.21,-92.66 895.01,-93.07 12.52,586.14 -482.75,477.94 -824.03,759.7 118.94,0.57 544.7,-59.98 604.83,7.01 114.49,191.17 -76.84,360.63 -255.31,405 -268.93,-183.25 -264.15,-325.32 -683.83,-424.57 -222.9,-52.71 -233.6,-36.28 -305.23,-267.9 -72.99,-235.96 22.32,-184.18 134.46,-352.59 -85.88,-108.2 -297.59,-179.52 -380.58,-347.97 -120.67,-244.89 33.76,-351.83 119.2,-546.19 138.61,-315.33 107.91,-736.4 451.14,-972.05 291.09,189.04 444.38,398.65 855.29,409.4 -152.13,-105.12 -259.91,-76.67 -458.02,-270.53 -391.57,-383.24 -593.72,-864.27 -808.46,-1343.96 -298.18,103.14 -243.69,223.21 -664.89,225.11 -334.84,1.51 -442.08,-88.47 -728.48,-161.27 -175.11,147.17 -267.35,391.73 -514.98,529.56 -349.02,194.26 -526.48,104.02 -878.01,103.23 171.41,123.58 460.96,140.46 697.24,127.94 239.52,-12.69 373.35,-96.92 567.21,-220.24 -2.66,472.71 -224.48,1078.69 -608.54,1381.58 -1184.09,933.83 -1335.55,885.61 -2692.29,209.1 -61.93,-30.88 -656.01,-326.39 -658.76,-326.62 -171.86,-14.07 -447.66,274.05 -665.6,322.15l-1138.17 -1093.37 -346.14 94.14 226.86 -177.82c-56.43,-114.2 -637.15,-653.91 -774.62,-781.85 12.18,-136.39 124.38,63.26 11.3,-138.95 210.64,57.81 87.92,14.45 112.45,-32.64l133.66 -115.92c35.45,-25.93 15.36,-54.9 38.3,-101.4 100.73,92.23 212.81,247.36 357.8,292.28l401.37 -419.56c-24.8,-133.95 -849.25,-949.39 -949.13,-949.78 -124.63,33.11 -398.58,312.44 -412.52,443.23 35.67,121.25 181.4,244.17 286.53,316.2 -110.37,64.11 -19.49,-20.71 -84.96,19.6 -55.12,33.94 5.85,2.66 -35.46,65.3 -1.18,1.81 -6.75,8.34 -8.1,10.06l-247.05 249.22c-89.15,-111.46 -391.81,-436.48 -511.52,-470.6 -134.71,40.85 -252.11,194.21 -318.99,327.98l502.61 496.91 -108.67 47.62c-1.94,2.01 -7.15,9.59 -9.11,11.71 -2.06,2.19 -7.9,9.5 -10.04,11.75l-47.79 43.98c-115.57,112.42 -39.2,34.92 -105.54,197.78 -99.49,-33.74 -3497.34,-3292.11 -3607.58,-3477.2zm-3955.45 5125.65c211.95,-263.83 165.15,-1402.25 177.57,-1807.36 11.04,-359.98 35.45,-565.99 131.49,-890.38 75.22,-254.09 242.86,-547.02 295.01,-753.46 -272.85,187.07 -653.23,1096.57 -668.27,1424.45 -12.7,276.89 8.64,732.63 38.16,1008.22 36.47,340.39 23.99,669.89 26.04,1018.53zm13105.65 31.15c-197.92,-202.08 -567.18,-376.49 -783.12,-576.89 -235.4,-218.45 -455.28,-418.49 -686.31,-644.02 -1308.29,-1277.2 -2927.64,-3609.23 -2279.76,-5472.88 626.86,-1803.12 2744.47,-1270.5 3047.66,-75.3 352.37,1389.06 -1317.03,2070.4 -1951.92,1096.76 -262.82,-403.06 -110.22,-662.29 31.24,-1038.74 -332.18,273.6 -368.23,805.78 -158.14,1165.37 663.79,1136.06 2484.62,601.96 2499.07,-943.2 16.55,-1770.75 -2456.2,-2431.75 -3584.46,-1017.14 -1087.05,1362.95 -319.32,3352.16 561.15,4606.24 433.82,617.91 903.21,1134.51 1458.38,1644.07 434.89,399.18 1294.75,1080.46 1846.21,1255.72zm-4939.32 -1708.19c91.72,137.19 1180.86,1169.39 1440.31,1408.73 129.77,119.72 401.47,354.04 488.72,486.85 -571.79,79.35 -394.75,254.3 -1239.89,-590.35 -241.36,-241.24 -843.91,-752.48 -1006.95,-989.53 93.49,-57.72 30.5,-29.95 160.02,-0.25l-54.99 -121.44 116.29 42.58 -29.3 -112.65 128.91 28.3c-26.08,-105.5 -59.63,-88.6 -3.13,-152.24zm-4750.62 -2217.01c106.66,-158.43 518.68,-529.25 699.3,-632.67l3188.15 3083.76 -402.49 -205.19c-32.97,423.86 40.84,892.93 -22.91,1322.89l592.11 -158.04c-160.44,170.34 -1371.93,750.9 -1657.1,883.76 -970.52,452.12 -1848.62,729.32 -2890.23,939.43 -1018.06,205.33 -1856.13,207.45 -2822.78,313.63 -181.98,19.99 -397.24,81.78 -576.43,86.96 224.84,-148.07 1336.71,-242.61 1690.26,-307.77 463.97,-85.52 1096.74,-151.43 1569.96,-294.65 -166.46,-115.43 -417.53,-180.11 -624.62,-321.82 243.94,-189.82 813.65,-307.38 405.32,-722.55 158.83,-83.15 305.34,-130.83 453.48,-209.61 252.36,-134.21 47.55,-72.57 365.98,-170.69 33.16,-303.67 327.8,-306.19 -55.24,-726.48 210.94,-130.32 470.93,-67.29 680.31,-390.51 233.38,-360.27 -62.07,-796.12 -86.38,-875.86 310.75,-263.47 605.98,-465.89 376.16,-976.44 -193.13,-429.07 -747.98,-528.34 -882.83,-638.14z"
   id="path1"
   style="fill:#e6eada;fill-opacity:1" />
 </g>
</svg>
